
<svg xmlns="http://www.w3.org/2000/svg" viewBox="0 0 2731.46 700">
    <defs>
        <style>
            .cls-1 {
                fill:#008081;
                }
            
            .cls-2 {
                fill:#FBAE17;
                }
        </style>
    </defs>

    <g id="Capa_2" data-name="Capa 2">
        <g id="Logo_Full">
            <path class="cls-1" d="M841.52,512.16A47.52,47.52,0,0,1,808,431a46.49,46.49,0,0,1,18.55-11.53,850.7,850.7,0,0,1-38.2-129.37Q780,292.65,771.86,296A181.74,181.74,0,0,0,659.14,464.65a180.06,180.06,0,0,0,13.72,69.58,183.33,183.33,0,0,0,98.85,99,181.44,181.44,0,0,0,164.69-12.9,858.17,858.17,0,0,1-71.16-114.48A45.81,45.81,0,0,1,841.52,512.16Z"/>
            
            <path class="cls-1" d="M2648.66,362.65q-28.66-42-75.87-63.91a185.31,185.31,0,0,0-77.24-17,181.44,181.44,0,0,0-21,1.22c-2,.25-4,.61-6,.92A853.68,853.68,0,0,1,2324,613.73a69.1,69.1,0,0,0,23.92,23.78,67.73,67.73,0,0,0,67.89,0,69.32,69.32,0,0,0,24.37-24.44,65,65,0,0,0,9.12-33.87v-115c0-1.5.08-3,.2-4.43.08-1,.22-1.91.36-2.85.06-.42.1-.84.17-1.25.21-1.21.47-2.4.77-3.57a2.86,2.86,0,0,1,.07-.28c.33-1.27.71-2.51,1.14-3.73h0a46.42,46.42,0,0,1,11.24-17.53,47.51,47.51,0,0,1,81.07,33.64v115a65,65,0,0,0,9.12,33.87,69.24,69.24,0,0,0,24.37,24.44,67.58,67.58,0,0,0,67.81,0A69.14,69.14,0,0,0,2670,613.07a65.09,65.09,0,0,0,9.11-33.87v-115A180.39,180.39,0,0,0,2648.66,362.65Z"/>
            
            <path class="cls-1" d="M540.6,299.13a185.34,185.34,0,0,0-77.24-17,181.64,181.64,0,0,0-21,1.23,178.23,178.23,0,0,0-85.49,34.21c-2.44,1.76-4.86,3.57-7.23,5.48q-41.22-33.41-92.72-39.69a179.16,179.16,0,0,0-41.83,0,184,184,0,0,0-52.88,14,123.21,123.21,0,0,0-12.42,6.32,182.56,182.56,0,0,0-67,59.43,185.85,185.85,0,0,0-18.24,35.1S57.38,417.67,54,435.43c-1.87,9.93-1.71,29.22-1.71,29.22V579.59a65,65,0,0,0,9.12,33.87,69.35,69.35,0,0,0,24.37,24.45A64.85,64.85,0,0,0,119.75,647a64.86,64.86,0,0,0,33.95-9.12,69.35,69.35,0,0,0,24.37-24.45,65,65,0,0,0,9.12-33.87V464.65c0-1.65.07-3.26.22-4.85A45.37,45.37,0,0,1,201.13,431a47.55,47.55,0,0,1,67.13,0,45.68,45.68,0,0,1,13.95,33.64V579.59a65,65,0,0,0,9.12,33.87,69.32,69.32,0,0,0,24.36,24.45,67.75,67.75,0,0,0,67.9,0A69.24,69.24,0,0,0,408,613.46a65,65,0,0,0,9.12-33.87V464.65c0-1.51.08-3,.2-4.44.09-1,.22-1.9.36-2.84.06-.42.11-.84.18-1.25.21-1.21.46-2.4.76-3.57,0-.1.05-.19.07-.28.34-1.27.72-2.51,1.15-3.74h0A46.36,46.36,0,0,1,431,431a47.51,47.51,0,0,1,81.07,33.64V579.59a65,65,0,0,0,9.12,33.87,69.35,69.35,0,0,0,24.37,24.45,67.6,67.6,0,0,0,67.82,0,69.22,69.22,0,0,0,24.44-24.45A65,65,0,0,0,647,579.59V464.65A180.45,180.45,0,0,0,616.46,363Q587.81,321.06,540.6,299.13Z"/>
            
            <path class="cls-2" d="M970.56,335.76a183,183,0,0,0-182.25-45.65,850.7,850.7,0,0,0,38.2,129.37,48.1,48.1,0,0,1,15-2.34,47.46,47.46,0,0,1,33.56,81.07,49.12,49.12,0,0,1-9.84,7.64A858.17,858.17,0,0,0,936.4,620.33a185.81,185.81,0,0,0,34-26.79,182,182,0,0,0,.15-257.78Z"/>
            
            <path class="cls-2" d="M1137.6,61.43a67.73,67.73,0,0,0-67.89,0,69.24,69.24,0,0,0-24.44,24.37,64.88,64.88,0,0,0-9.12,34V579.52a65,65,0,0,0,9.12,33.87,69,69,0,0,0,24.44,24.44,67.73,67.73,0,0,0,67.89,0A68.52,68.52,0,0,0,1162,613.39a65.42,65.42,0,0,0,9-33.87V119.75a65.29,65.29,0,0,0-9-33.95A68.72,68.72,0,0,0,1137.6,61.43Z"/>
            
            <path class="cls-2" d="M1661.8,193.41a67.8,67.8,0,0,0-67.89,0,69.32,69.32,0,0,0-24.44,24.37,64.88,64.88,0,0,0-9.12,33.95V579.64a65,65,0,0,0,9.12,33.87c1,1.62,2.07,3.11,3.14,4.62a68.83,68.83,0,0,0,21.3,19.83,67.45,67.45,0,0,0,67.74,0,68.83,68.83,0,0,0,21.3-19.83c1.07-1.52,2.18-3,3.15-4.62a65.07,65.07,0,0,0,9.11-33.87V251.73a65.29,65.29,0,0,0-9-33.95A68.8,68.8,0,0,0,1661.8,193.41Z"/>
            
            <path class="cls-2" d="M2038.68,291.28a67.6,67.6,0,0,0-67.82,0,69.54,69.54,0,0,0-24.37,24.37,64.87,64.87,0,0,0-9.12,33.94v115a47.51,47.51,0,1,1-95,0v-115a65,65,0,0,0-9.11-33.94,69.35,69.35,0,0,0-24.45-24.37,67.6,67.6,0,0,0-67.82,0,69.51,69.51,0,0,0-24.36,24.37,64.87,64.87,0,0,0-9.12,33.94v115a180,180,0,0,0,13.71,69.57,183.28,183.28,0,0,0,98.86,99,183.19,183.19,0,0,0,139.46,0,184,184,0,0,0,98.93-98.93,179.77,179.77,0,0,0,13.79-69.65v-115a64.87,64.87,0,0,0-9.12-33.94A69.4,69.4,0,0,0,2038.68,291.28Z"/>
            
            <path class="cls-2" d="M1597.67,163.93a59.9,59.9,0,0,0,60.23,0,61.48,61.48,0,0,0,21.61-21.68,57.69,57.69,0,0,0,8-30,57.94,57.94,0,0,0-8-30.11,60.88,60.88,0,0,0-21.61-21.61,60.36,60.36,0,0,0-60.23,0,60.72,60.72,0,0,0-21.61,21.61,57.85,57.85,0,0,0-8,30.11,57.61,57.61,0,0,0,8,30A61.31,61.31,0,0,0,1597.67,163.93Z"/>
            
            <path class="cls-2" d="M2389.07,317.17c-2.44,1.75-4.86,3.56-7.23,5.47q-41.24-33.4-92.72-39.69a180.62,180.62,0,0,0-41.83,0,183.72,183.72,0,0,0-52.89,14,126.31,126.31,0,0,0-12.42,6.31,182.66,182.66,0,0,0-67,59.44,185.78,185.78,0,0,0-18.23,35.1s-7.2,19.53-10.55,37.28c-1.87,9.93-1.71,29.22-1.71,29.22v115a65,65,0,0,0,9.12,33.87A69.21,69.21,0,0,0,2118,637.51a67.75,67.75,0,0,0,67.9,0,69.3,69.3,0,0,0,24.36-24.44,65,65,0,0,0,9.12-33.87v-115c0-1.64.08-3.26.22-4.85a45.43,45.43,0,0,1,13.73-28.79,47.51,47.51,0,0,1,81.07,33.64v115a65,65,0,0,0,9.12,33.87c.14.23.31.43.45.66a853.68,853.68,0,0,0,144.61-329.86A178.22,178.22,0,0,0,2389.07,317.17Z"/>
            
            <path class="cls-2" d="M1514.7,62.32a67.75,67.75,0,0,0-67.9,0,69.4,69.4,0,0,0-24.44,24.37,64.88,64.88,0,0,0-9.12,34v168.5a183,183,0,0,0-47.51-6.21,182.53,182.53,0,0,0-168.66,252,183.33,183.33,0,0,0,98.85,99,183.09,183.09,0,0,0,139.47,0,182.85,182.85,0,0,0,59.23-39.69,180.1,180.1,0,0,0,53.31-121.55l.18-.07V120.64a65.3,65.3,0,0,0-9-33.95A68.77,68.77,0,0,0,1514.7,62.32ZM1399.29,498.87a47.44,47.44,0,1,1,14-33.56A45.73,45.73,0,0,1,1399.29,498.87Z"/>
            
            <path d="M841.52,417.14a48.1,48.1,0,0,0-15,2.34A46.49,46.49,0,0,0,808,431a47.54,47.54,0,0,0,57.28,74.84,49.12,49.12,0,0,0,9.84-7.64,47.47,47.47,0,0,0-33.56-81.07Z"/>
            
            <path d="M2692.29,333.79l-.43-.64c-24.4-35.75-57.05-63.29-97.48-82.06a238.15,238.15,0,0,0-98.83-21.68c-5.87,0-11.86.32-17.9.79-3.13.24-6.25.46-9.44.83a229.12,229.12,0,0,0-86.29,28.48A230.49,230.49,0,0,0,2295.14,231a239.64,239.64,0,0,0-120.95,17.66,139.47,139.47,0,0,0-14.31,7l-2.23,1.23A238.83,238.83,0,0,0,2109,290.62c-.35-.6-.65-1.22-1-1.82a121.46,121.46,0,0,0-42.6-42.48,119.9,119.9,0,0,0-121.4.06,121.63,121.63,0,0,0-42.43,42.42,115.9,115.9,0,0,0-11.73,26.74,115.23,115.23,0,0,0-11.73-26.74,121.46,121.46,0,0,0-42.6-42.48,116.89,116.89,0,0,0-60.61-16.47,121.05,121.05,0,0,0-28.8,3.45,115.55,115.55,0,0,0-15-42.21,123,123,0,0,0-10.94-15.5c1.49-2.16,2.92-4.37,4.28-6.65a109.59,109.59,0,0,0,15.36-56.66,109.85,109.85,0,0,0-15.36-56.8,112.87,112.87,0,0,0-39.91-39.91,112.66,112.66,0,0,0-113.61,0,115.12,115.12,0,0,0-15.8,11.31,124.62,124.62,0,0,0-13.74-9.52,120,120,0,0,0-121.39,0,121.43,121.43,0,0,0-42.59,42.48,116.76,116.76,0,0,0-16.53,60.79v110a232.21,232.21,0,0,0-137.6,48.15V119.75A117.23,117.23,0,0,0,1207,59.11a120.81,120.81,0,0,0-42.62-42.64,120,120,0,0,0-121.38,0A121.34,121.34,0,0,0,1000.37,59a116.76,116.76,0,0,0-16.53,60.79V278a231.62,231.62,0,0,0-52.53-30.39,236.23,236.23,0,0,0-152.25-9.24,230.78,230.78,0,0,0-27.18,9.25,234.91,234.91,0,0,0-76.24,51,239.74,239.74,0,0,0-22.52,26c-23.6-31.39-54-56-90.94-73.13A235.47,235.47,0,0,0,436,231.42a229.41,229.41,0,0,0-86.3,28.48,230.61,230.61,0,0,0-86.78-28.52,236.56,236.56,0,0,0-27-1.57,232.32,232.32,0,0,0-26.43,1.52A236,236,0,0,0,142,249a138.19,138.19,0,0,0-14.31,7l-2.24,1.22a235.2,235.2,0,0,0-85.84,76.25l-.44.65a239.64,239.64,0,0,0-23.33,44.95l-.34.91c-.9,2.42-8.83,24.24-12.87,45.68C0,439.6,0,459.36,0,464.65v115a116.82,116.82,0,0,0,16.47,60.6A121.13,121.13,0,0,0,59,682.8a116.7,116.7,0,0,0,60.79,16.54,116.76,116.76,0,0,0,60.78-16.52A121.26,121.26,0,0,0,223,640.21a116.27,116.27,0,0,0,11.68-26.65,116.12,116.12,0,0,0,11.66,26.64,121.29,121.29,0,0,0,42.48,42.6,120,120,0,0,0,121.57,0,121.29,121.29,0,0,0,42.5-42.61,116.23,116.23,0,0,0,11.67-26.65,116.59,116.59,0,0,0,11.67,26.64,121.13,121.13,0,0,0,42.48,42.6,119.87,119.87,0,0,0,121.4.07A121.12,121.12,0,0,0,682.8,640.2c.35-.59.65-1.2,1-1.79a233.31,233.31,0,0,0,157.73,60.93,231.94,231.94,0,0,0,127.3-37.65,237.63,237.63,0,0,0,30.45-23.45c.35.63.67,1.27,1,1.89A121,121,0,0,0,1043,682.78a120,120,0,0,0,121.38,0A120.54,120.54,0,0,0,1207,640c.23-.4.42-.8.65-1.2a233.27,233.27,0,0,0,158,61.23,232.54,232.54,0,0,0,89.73-17.8,235.11,235.11,0,0,0,68.2-43.47c.28.48.52,1,.81,1.45,1.88,3.18,3.66,5.67,4.84,7.33l.54.76a121.12,121.12,0,0,0,37.31,34.64,119.73,119.73,0,0,0,121.22,0,121.07,121.07,0,0,0,37.35-34.69l.51-.7c1.17-1.65,3-4.14,4.82-7.28.38-.64.71-1.31,1.07-2a233.24,233.24,0,0,0,157.73,60.93,232.62,232.62,0,0,0,89.74-17.79A235.35,235.35,0,0,0,2047.7,638c.34.58.63,1.18,1,1.77a121.4,121.4,0,0,0,42.49,42.6,120,120,0,0,0,121.56,0,121.35,121.35,0,0,0,42.5-42.6,116.3,116.3,0,0,0,11.67-26.66,116.48,116.48,0,0,0,11.67,26.65,124.59,124.59,0,0,0,12.23,17A121.17,121.17,0,0,0,2321,682.41a120.08,120.08,0,0,0,121.58,0,121.48,121.48,0,0,0,42.49-42.6,116.55,116.55,0,0,0,11.67-26.66,116.56,116.56,0,0,0,11.66,26.64,121.43,121.43,0,0,0,42.49,42.61,119.91,119.91,0,0,0,121.39.07A121.25,121.25,0,0,0,2715,639.8a116.87,116.87,0,0,0,16.46-60.6v-115A232.73,232.73,0,0,0,2692.29,333.79ZM647,579.59a65,65,0,0,1-9.12,33.87,69.22,69.22,0,0,1-24.44,24.45,67.6,67.6,0,0,1-67.82,0,69.35,69.35,0,0,1-24.37-24.45,65,65,0,0,1-9.12-33.87V464.65A47.52,47.52,0,0,0,431,431a46.36,46.36,0,0,0-11.23,17.52h0c-.43,1.23-.81,2.47-1.15,3.74,0,.09,0,.18-.07.28-.3,1.17-.55,2.36-.76,3.57-.07.41-.12.83-.18,1.25-.14.94-.27,1.88-.36,2.84-.12,1.46-.2,2.93-.2,4.44V579.59A65,65,0,0,1,408,613.46a69.24,69.24,0,0,1-24.36,24.45,67.75,67.75,0,0,1-67.9,0,69.32,69.32,0,0,1-24.36-24.45,65,65,0,0,1-9.12-33.87V464.65a47.49,47.49,0,0,0-47.51-47.51A45.88,45.88,0,0,0,201.13,431a45.37,45.37,0,0,0-13.72,28.79c-.15,1.59-.22,3.2-.22,4.85V579.59a65,65,0,0,1-9.12,33.87,69.35,69.35,0,0,1-24.37,24.45A64.86,64.86,0,0,1,119.75,647a64.85,64.85,0,0,1-33.94-9.12,69.35,69.35,0,0,1-24.37-24.45,65,65,0,0,1-9.12-33.87V464.65s-.16-19.29,1.71-29.22c3.35-17.76,10.55-37.29,10.55-37.29A185.85,185.85,0,0,1,82.82,363a182.56,182.56,0,0,1,67-59.43,123.21,123.21,0,0,1,12.42-6.32,189.93,189.93,0,0,1,73.71-15.17,181.64,181.64,0,0,1,21,1.23q51.49,6.28,92.72,39.69c2.37-1.91,4.79-3.72,7.23-5.48a178.23,178.23,0,0,1,85.49-34.21,181.64,181.64,0,0,1,21-1.23,185.34,185.34,0,0,1,77.24,17q47.21,21.93,75.86,63.91A180.45,180.45,0,0,1,647,464.65Zm363.22-45.28a180.88,180.88,0,0,1-39.77,59.23,185.81,185.81,0,0,1-34,26.79,182.57,182.57,0,0,1-164.69,12.9,183.33,183.33,0,0,1-98.85-99,181.69,181.69,0,0,1,39.77-198.62A182,182,0,0,1,771.86,296q8.13-3.36,16.45-5.88a182.61,182.61,0,0,1,221.87,244.2ZM1171,579.52a65.42,65.42,0,0,1-9,33.87,68.52,68.52,0,0,1-24.37,24.44,67.73,67.73,0,0,1-67.89,0,69,69,0,0,1-24.44-24.44,65,65,0,0,1-9.12-33.87V119.75a64.88,64.88,0,0,1,9.12-33.95,69.24,69.24,0,0,1,24.44-24.37,67.73,67.73,0,0,1,67.89,0A68.72,68.72,0,0,1,1162,85.8a65.29,65.29,0,0,1,9,34Zm377.1-114.21v7.27l-.18.07a180.1,180.1,0,0,1-53.31,121.55,182.85,182.85,0,0,1-59.23,39.69,183.09,183.09,0,0,1-139.47,0,183.33,183.33,0,0,1-98.85-99,181.69,181.69,0,0,1,39.77-198.62,183,183,0,0,1,176.4-47.13V120.64a64.88,64.88,0,0,1,9.12-33.95,69.4,69.4,0,0,1,24.44-24.37,67.75,67.75,0,0,1,67.9,0,68.77,68.77,0,0,1,24.36,24.37,65.3,65.3,0,0,1,9,34Zm28-383.14a60.72,60.72,0,0,1,21.61-21.61,60.36,60.36,0,0,1,60.23,0,60.88,60.88,0,0,1,21.61,21.61,57.94,57.94,0,0,1,8,30.11,57.69,57.69,0,0,1-8,30,61.48,61.48,0,0,1-21.61,21.68,59.9,59.9,0,0,1-60.23,0,61.31,61.31,0,0,1-21.61-21.68,57.61,57.61,0,0,1-8-30A57.85,57.85,0,0,1,1576.06,82.17Zm119.15,267.59V579.64a65.07,65.07,0,0,1-9.11,33.87c-1,1.62-2.08,3.1-3.15,4.62a68.83,68.83,0,0,1-21.3,19.83,67.45,67.45,0,0,1-67.74,0,68.83,68.83,0,0,1-21.3-19.83c-1.07-1.51-2.18-3-3.14-4.62a65,65,0,0,1-9.12-33.87V251.73a64.88,64.88,0,0,1,9.12-33.95,69.32,69.32,0,0,1,24.44-24.37,67.8,67.8,0,0,1,67.89,0,68.8,68.8,0,0,1,24.37,24.37,65.29,65.29,0,0,1,9,33.95Zm377,114.78a179.77,179.77,0,0,1-13.79,69.65,184,184,0,0,1-98.93,98.93,183.19,183.19,0,0,1-139.46,0,183.28,183.28,0,0,1-98.86-99,180,180,0,0,1-13.71-69.57v-115a64.87,64.87,0,0,1,9.12-33.94A69.51,69.51,0,0,1,1741,291.28a67.6,67.6,0,0,1,67.82,0,69.35,69.35,0,0,1,24.45,24.37,65,65,0,0,1,9.11,33.94v115a47.51,47.51,0,0,0,95,0v-115a64.87,64.87,0,0,1,9.12-33.94,69.54,69.54,0,0,1,24.37-24.37,67.6,67.6,0,0,1,67.82,0,69.4,69.4,0,0,1,24.44,24.37,64.87,64.87,0,0,1,9.12,33.94ZM2679.15,579.2a65.09,65.09,0,0,1-9.11,33.87,69.14,69.14,0,0,1-24.45,24.44,67.58,67.58,0,0,1-67.81,0,69.24,69.24,0,0,1-24.37-24.44,65,65,0,0,1-9.12-33.87v-115a47.52,47.52,0,0,0-81.07-33.64A46.42,46.42,0,0,0,2452,448.14h0c-.43,1.22-.81,2.46-1.14,3.73a2.86,2.86,0,0,0-.07.28c-.3,1.17-.56,2.36-.77,3.57-.07.41-.11.83-.17,1.25-.14.94-.28,1.88-.36,2.85-.12,1.45-.2,2.93-.2,4.43v115a65,65,0,0,1-9.12,33.87,69.32,69.32,0,0,1-24.37,24.44,67.73,67.73,0,0,1-67.89,0A69.1,69.1,0,0,1,2324,613.73c-.14-.23-.31-.43-.45-.66a65,65,0,0,1-9.12-33.87v-115a47.53,47.53,0,0,0-94.8-4.85c-.14,1.59-.22,3.21-.22,4.85v115a65,65,0,0,1-9.12,33.87,69.3,69.3,0,0,1-24.36,24.44,67.75,67.75,0,0,1-67.9,0,69.21,69.21,0,0,1-24.36-24.44,65,65,0,0,1-9.12-33.87v-115s-.16-19.29,1.71-29.22c3.35-17.75,10.55-37.28,10.55-37.28a185.78,185.78,0,0,1,18.23-35.1,182.66,182.66,0,0,1,67-59.44,126.31,126.31,0,0,1,12.42-6.31,189.39,189.39,0,0,1,73.72-15.17,181.61,181.61,0,0,1,21,1.22q51.48,6.29,92.72,39.69c2.37-1.91,4.79-3.72,7.23-5.47a178.22,178.22,0,0,1,79.51-33.3c2-.31,4-.67,6-.92a181.44,181.44,0,0,1,21-1.22,185.31,185.31,0,0,1,77.24,17q47.21,21.92,75.87,63.91a180.39,180.39,0,0,1,30.49,101.6Z"/>
            
            <path d="M1365.73,417.8a47.49,47.49,0,1,0,33.56,13.87A45.85,45.85,0,0,0,1365.73,417.8Z"/>
        </g>
    </g>
</svg>