
<svg xmlns="http://www.w3.org/2000/svg" viewBox="0 0 744.61 500">
    <defs>
        <style>
            .cls-1 {
                fill:#008081;
                }
            
            .cls-2 {
                fill:#FBAE17;
                }
        </style>
    </defs>

    <g id="Capa_2" data-name="Capa 2">
        <g id="Logo_Full">
            <path class="cls-1" d="M656.42,141.88q-30.51-44.71-80.78-68.06a197.46,197.46,0,0,0-82.26-18.11A194.11,194.11,0,0,0,471,57c-2.14.26-4.24.66-6.36,1a909,909,0,0,1-154,351.27,73.75,73.75,0,0,0,25.47,25.32,72.15,72.15,0,0,0,72.3,0,73.86,73.86,0,0,0,25.95-26,69.25,69.25,0,0,0,9.71-36.07V250.08c0-1.6.08-3.17.21-4.72.09-1,.23-2,.38-3,.06-.44.11-.89.19-1.33.22-1.29.5-2.55.81-3.8,0-.1.05-.2.08-.3.35-1.34.76-2.67,1.22-4h0a50.7,50.7,0,0,1,83.44-18.66,48.66,48.66,0,0,1,14.85,35.82v122.4A69.25,69.25,0,0,0,555,408.55a73.78,73.78,0,0,0,26,26,72,72,0,0,0,72.22,0,73.6,73.6,0,0,0,26-26,69.25,69.25,0,0,0,9.71-36.07V250.08A192.13,192.13,0,0,0,656.42,141.88Z"/>
            
            <path class="cls-2" d="M380,93.45c-2.6,1.87-5.17,3.8-7.7,5.83Q328.37,63.7,273.53,57A199.63,199.63,0,0,0,172.67,71.86c-5.21,2.18-8,3.91-13.23,6.73a194.42,194.42,0,0,0-71.31,63.29,198.18,198.18,0,0,0-19.42,37.38S61,200.05,57.48,219c-2,10.58-1.83,31.12-1.83,31.12v122.4a69.25,69.25,0,0,0,9.71,36.07,73.78,73.78,0,0,0,26,26,69.05,69.05,0,0,0,36.15,9.71,69,69,0,0,0,36.15-9.71,73.78,73.78,0,0,0,25.95-26,69.15,69.15,0,0,0,9.71-36.07V250.08c0-1.75.08-3.47.23-5.16a48.36,48.36,0,0,1,14.62-30.66,50.64,50.64,0,0,1,71.49,0,48.69,48.69,0,0,1,14.85,35.82v122.4a69.15,69.15,0,0,0,9.71,36.07c.15.25.33.47.48.71A909,909,0,0,0,464.64,58,189.72,189.72,0,0,0,380,93.45Z"/>
            
            <path d="M164.69,15.19c2-.71,4-1.42,6-2.09C168.67,13.77,166.68,14.48,164.69,15.19Z"/>
            
            <path d="M138.86,499.46c-1.7.15-3.42.26-5.14.34C135.44,499.72,137.15,499.61,138.86,499.46Z"/>
            
            <path d="M156.77,18.21c1.2-.48,2.39-1,3.59-1.44C159.16,17.23,158,17.73,156.77,18.21Z"/>
            
            <path class="cls-4" d="M133.72,499.8l-1.53.05C132.7,499.83,133.21,499.83,133.72,499.8Z"/>
            
            <path class="cls-4" d="M139.78,499.37c-.31,0-.61.07-.92.09C139.17,499.44,139.47,499.4,139.78,499.37Z"/>
            
            <path class="cls-4" d="M160.36,16.77c1.44-.55,2.89-1,4.33-1.58C163.25,15.71,161.8,16.23,160.36,16.77Z"/>
                        
            <path class="cls-4" d="M172.12,12.6l-1.45.5,1.45-.46Z"/>
            
            <path class="cls-4" d="M68.73,179.26S61.07,200.05,57.5,219c-2,10.58-1.82,31.12-1.82,31.12v122.4a69.15,69.15,0,0,0,9.71,36.07,73.78,73.78,0,0,0,26,26,69,69,0,0,0,36.15,9.71,69.05,69.05,0,0,0,36.15-9.71,76.17,76.17,0,0,0,8.48-5.9v0a75.44,75.44,0,0,1-8.44,5.87,69.05,69.05,0,0,1-36.15,9.71,69,69,0,0,1-36.15-9.71,73.78,73.78,0,0,1-25.95-26,69.15,69.15,0,0,1-9.71-36.07V250s-.17-20.54,1.82-31.12c3.57-18.91,11.23-39.7,11.23-39.7a198.18,198.18,0,0,1,19.42-37.38c2.3-3.36,4.67-6.63,7.14-9.8q-3.72,4.78-7.17,9.85A198.24,198.24,0,0,0,68.73,179.26Z"/>
            
            <path class="cls-4" d="M133.56,29.28,135.93,28a148.42,148.42,0,0,1,15.24-7.49c1.86-.79,3.73-1.53,5.6-2.27-1.85.73-3.72,1.43-5.56,2.22A148.1,148.1,0,0,0,136,27.92l-2.38,1.3A254.4,254.4,0,0,0,81.77,65.16v0A254.44,254.44,0,0,1,133.56,29.28Z"/>
            
            <path d="M702.9,111.15l-.46-.68c-26-38.07-60.76-67.4-103.81-87.39A253.61,253.61,0,0,0,493.39,0c-6.26,0-12.63.34-19.06.84-3.34.25-6.66.48-10.05.88a244,244,0,0,0-91.9,30.33A245.39,245.39,0,0,0,280,1.68a255.06,255.06,0,0,0-107.85,11l-1.45.46c-2,.67-4,1.38-6,2.09-1.44.53-2.89,1-4.33,1.58-1.2.46-2.39,1-3.59,1.44-1.87.74-3.74,1.48-5.6,2.27A148.42,148.42,0,0,0,135.93,28l-2.37,1.31a254.44,254.44,0,0,0-51.78,35.9v0a250,250,0,0,0-39.59,45.26l-.46.69c-.27.4-.51.8-.77,1.2A255.06,255.06,0,0,0,16.87,159l-.37,1c-.95,2.57-9.39,25.82-13.7,48.64C0,223.35,0,244.39,0,250V372.44A124.44,124.44,0,0,0,17.55,437a129.19,129.19,0,0,0,45.23,45.36A124.3,124.3,0,0,0,127.52,500c1.57,0,3.12-.05,4.67-.1l1.53-.05c1.72-.08,3.44-.19,5.14-.34.31,0,.61-.06.92-.09,2.7-.24,5.37-.6,8-1l1.11-.19q3.59-.59,7.11-1.38l.6-.14a122,122,0,0,0,35.58-14.24A129.22,129.22,0,0,0,237.46,437a123.89,123.89,0,0,0,12.43-28.39A124,124,0,0,0,262.31,437a133.47,133.47,0,0,0,13,18.15,129.24,129.24,0,0,0,32.21,27.22,127.85,127.85,0,0,0,129.47,0A129.33,129.33,0,0,0,482.27,437a123.67,123.67,0,0,0,12.42-28.39A124.18,124.18,0,0,0,507.12,437a129.16,129.16,0,0,0,45.24,45.37,127.67,127.67,0,0,0,129.27.08A129.16,129.16,0,0,0,727.08,437a124.56,124.56,0,0,0,17.53-64.54V250.08A247.88,247.88,0,0,0,702.9,111.15Zm-14,261.33a69.25,69.25,0,0,1-9.71,36.07,73.71,73.71,0,0,1-26,26,72,72,0,0,1-72.21,0,73.78,73.78,0,0,1-26-26,69.15,69.15,0,0,1-9.71-36.07V250.08A50.61,50.61,0,0,0,459,214.26a49.45,49.45,0,0,0-12,18.66h0c-.46,1.3-.86,2.63-1.22,4,0,.1,0,.2-.07.3-.32,1.25-.59,2.51-.82,3.8-.07.44-.12.89-.18,1.33-.15,1-.3,2-.39,3-.13,1.55-.21,3.12-.21,4.72v122.4a69.25,69.25,0,0,1-9.71,36.07,73.78,73.78,0,0,1-25.95,26,72.15,72.15,0,0,1-72.3,0,73.72,73.72,0,0,1-25.46-25.32c-.15-.24-.34-.46-.49-.71a69.25,69.25,0,0,1-9.71-36.07V250.08a50.56,50.56,0,0,0-50.59-50.59,48.84,48.84,0,0,0-35.74,14.77,48.31,48.31,0,0,0-14.62,30.66c-.16,1.69-.23,3.41-.23,5.16v122.4a69.25,69.25,0,0,1-9.71,36.07,74,74,0,0,1-17.47,20.13,76.17,76.17,0,0,1-8.48,5.9,69.05,69.05,0,0,1-36.15,9.71,69,69,0,0,1-36.15-9.71,73.78,73.78,0,0,1-25.95-26,69.15,69.15,0,0,1-9.71-36.07V250.08S55.51,229.54,57.5,219c3.57-18.91,11.23-39.7,11.23-39.7a198.24,198.24,0,0,1,19.43-37.38q3.45-5.07,7.17-9.85a194.4,194.4,0,0,1,64.14-53.44c5.24-2.82,8-4.55,13.22-6.73a201.83,201.83,0,0,1,78.5-16.15A193.85,193.85,0,0,1,273.55,57q54.84,6.7,98.74,42.27c2.53-2,5.1-4,7.7-5.83A189.77,189.77,0,0,1,464.66,58c2.12-.32,4.22-.72,6.37-1a194.11,194.11,0,0,1,22.36-1.3,197.42,197.42,0,0,1,82.25,18.11q50.26,23.34,80.79,68.06a192.13,192.13,0,0,1,32.48,108.2Z"/>
        </g>
    </g>
</svg>